Coordinates
version=1
nRows=4
nColumns=63
inDegrees=yes

Units are S.I. units (second, meters, Newtons, ...)
If the header above contains a line with 'inDegrees', this indicates whether rotational values are in degrees (yes) or radians (no).

endheader
time	pelvis_tilt	pelvis_list	pelvis_rotation	pelvis_tx	pelvis_ty	pelvis_tz	hip_flexion_r	hip_adduction_r	hip_rotation_r	knee_angle_r	knee_angle_r_beta	ankle_angle_r	subtalar_angle_r	mtp_angle_r	hip_flexion_l	hip_adduction_l	hip_rotation_l	knee_angle_l	knee_angle_l_beta	ankle_angle_l	subtalar_angle_l	mtp_angle_l	L5_S1_Flex_Ext	L5_S1_Lat_Bending	L5_S1_axial_rotation	L4_L5_Flex_Ext	L4_L5_Lat_Bending	L4_L5_axial_rotation	L3_L4_Flex_Ext	L3_L4_Lat_Bending	L3_L4_axial_rotation	L2_L3_Flex_Ext	L2_L3_Lat_Bending	L2_L3_axial_rotation	L1_L2_Flex_Ext	L1_L2_Lat_Bending	L1_L2_axial_rotation	L1_T12_Flex_Ext	L1_T12_Lat_Bending	L1_T12_axial_rotation	Abs_r3	Abs_r2	Abs_r1	Abs_t1	Abs_t2	neck_flexion	neck_bending	neck_rotation	arm_flex_r	arm_add_r	arm_rot_r	elbow_flex_r	pro_sup_r	wrist_flex_r	wrist_dev_r	arm_flex_l	arm_add_l	arm_rot_l	elbow_flex_l	pro_sup_l	wrist_flex_l	wrist_dev_l
      0.53448276	      5.75752822	     -0.09150227	     96.41143848	      0.13784109	      0.82464211	      0.85588293	      6.42654174	      2.58899785	     -6.16815637	     11.64226637	      0.20319588	     36.02122041	     15.27869248	      0.00000000	      5.78005902	     -1.56582523	      6.60566958	     11.22181528	      0.19585762	     30.47386557	     -4.76531987	      0.00000000	     -0.03043666	      0.14757222	     -1.18026714	     -0.05652393	      0.19627105	     -1.25403384	     -0.05000439	      0.35880708	     -1.25403384	     -0.03478606	      0.35880708	     -1.03273375	     -0.02826348	      0.30092926	     -0.95896705	     -0.01739151	      0.22858936	     -0.88520036	     -0.21740604	      1.66936641	     -6.56429177	      0.00000000	      0.00000000	     10.41233577	      5.43925198	    -16.62871601	     38.61411946	     -8.61071727	     22.22722811	    143.53015620	     89.18620722	     -5.62366938	     11.02716672	      9.11813920	    -15.80907119	    149.44276016	      1.13693848	      4.79612059	     -7.31726658	     -5.22308110
      0.55172414	      5.94533658	     -0.14868819	     96.48639227	      0.13780179	      0.82404509	      0.85659289	      6.75249680	      2.74506917	     -6.45637367	     11.98393954	      0.20915920	     36.25975938	     15.42095394	      0.00000000	      5.77148768	     -1.72652108	      7.00101055	     10.95546748	      0.19120898	     30.17878651	     -5.19005165	      0.00000000	     -0.03041097	      0.16324368	     -1.23561535	     -0.05647621	      0.21711409	     -1.31284131	     -0.04996218	      0.39691068	     -1.31284131	     -0.03475670	      0.39691068	     -1.08116343	     -0.02823963	      0.33288651	     -1.00393747	     -0.01737683	      0.25286446	     -0.92671151	     -0.21722253	      1.84664513	     -6.87212188	      0.00000000	      0.00000000	     10.59566169	      5.58426964	    -16.42509518	     39.38675159	     -7.87094040	     21.94969503	    143.86146989	     89.17989821	     -5.81818231	     12.85777403	      8.66539075	    -16.21036506	    143.50262466	      1.48608398	      4.25192724	     -5.67755274	     -5.17386786
      0.56896552	      6.02594278	     -0.15507658	     96.48760149	      0.13802255	      0.82355928	      0.85747270	      7.04833240	      2.80275931	     -6.67491265	     12.42616391	      0.21687747	     36.53547590	     15.45148711	      0.00000000	      5.70759181	     -1.81584378	      7.14308957	     10.72979581	      0.18727026	     29.89590318	     -5.35710887	      0.00000000	     -0.03871011	      0.16675901	     -1.22170648	     -0.07188855	      0.22178948	     -1.29806314	     -0.06359685	      0.40545786	     -1.29806314	     -0.04424179	      0.40545786	     -1.06899317	     -0.03594621	      0.34005497	     -0.99263652	     -0.02211896	      0.25830971	     -0.91627986	     -0.27650248	      1.88641128	     -6.79476494	      0.00000000	      0.00000000	     10.79687165	      5.72568394	    -16.38588228	     39.99568020	     -7.31754070	     21.72456868	    143.98863852	     89.17123451	     -6.38151223	     14.12926061	      8.61631663	    -16.57815629	    139.57583328	      1.84220061	      2.50690118	     -3.66945557	     -4.81943619
      0.58620690	      6.17079701	     -0.09938971	     96.32703413	      0.13833345	      0.82315642	      0.85789654	      7.13869878	      2.92957057	     -6.96163317	     12.66222620	      0.22099754	     36.73300047	     15.85182503	      0.00000000	      5.54831185	     -1.96015907	      7.46332736	     10.53229641	      0.18382325	     29.65633130	     -6.05355821	      0.00000000	     -0.04367100	      0.18465252	     -1.19260017	     -0.08110142	      0.24558785	     -1.26713769	     -0.07174709	      0.44896414	     -1.26713769	     -0.04991159	      0.44896414	     -1.04352515	     -0.04055289	      0.37654342	     -0.96898764	     -0.02495361	      0.28602676	     -0.89445013	     -0.31193759	      2.08882625	     -6.63288439	      0.00000000	      0.00000000	     10.89068251	      5.71474683	    -15.91274634	     40.45439689	     -6.71911237	     21.54223149	    143.95355147	     89.15792253	     -6.56397423	     15.01411164	      8.43519110	    -16.87595074	    131.75819696	      2.56785094	      2.53815848	     -2.14978716	     -5.13187585
